<?xml version="1.0" encoding="UTF-8"?>
<svg id="Layer_1" xmlns="http://www.w3.org/2000/svg" version="1.1" viewBox="0 0 500 500">
  <!-- Generator: Adobe Illustrator 30.1.0, SVG Export Plug-In . SVG Version: 2.1.1 Build 136)  -->
  <defs>
    <style>
      .st0 {
        fill: #5ba6f1;
      }

      .st1 {
        font-family: Baumans-Regular, Baumans;
        font-size: 49px;
      }

      .st2 {
        fill: #696a6e;
      }

      .st3 {
        fill: #fff;
      }

      .st4 {
        fill: #03a9f4;
      }
    </style>
  </defs>
  <g>
    <path class="st4" d="M342.8,101.4c-14.3-37.8-50.9-64.7-93.7-64.7s-79.4,26.9-93.7,64.7c-39.2,6-69.4,40-69.4,80.6h0c0,44.9,36.7,81.6,81.6,81.6h162.8c44.9,0,81.6-36.7,81.6-81.6h0c0-40.7-30.2-74.7-69.4-80.6h.2Z"/>
    <path class="st0" d="M336.1,77.8"/>
    <path class="st4" d="M249,263.7c74,0,134,43,134,96.2H115c0-53.1,60-96.2,134-96.2h0Z"/>
    <path class="st3" d="M393.7,165.5c-.7,0-1.3,0-2,.1-7.1-27.6-32.2-48.2-62.1-48.2s-39.9,10.3-51.5,26c-4.1-3.5-13.6-9.9-28.7-9.9s-24.6,6.3-28.7,9.7c-11.6-15.8-30.4-25.9-51.5-25.9-29.9,0-55,20.4-62.1,48.1h-.7c-8.8,0-16,7.2-16,16s7.2,16,16,16,.4,0,.7,0c7.1,27.6,32.2,48.1,62.1,48.1s64.1-28.7,64.1-64.1-1.7-17.2-5.1-24.8c5.1-3.5,12.2-6.5,21.2-6.5s16,3.1,21.1,6.5c-3.2,7.6-4.9,16-4.9,24.8,0,35.4,28.7,64.1,64.1,64.1s55-20.6,62.1-48.2c.7,0,1.3.1,2,.1,8.8,0,16-7.2,16-16s-7.2-16-16-16h-.1ZM169.1,228.3c-25.8,0-46.7-21-46.7-46.7s21-46.7,46.7-46.7,44.3,18.7,46.5,42.5c-1.9-6.7-8-11.8-15.4-11.8s-16,7.2-16,16,7.2,16,16,16,13.5-4.9,15.4-11.8c-2.1,23.8-22.2,42.5-46.5,42.5h0ZM329.6,228.3c-25,0-45.4-19.6-46.7-44.3,1.2,7.7,7.7,13.6,15.9,13.6s16-7.2,16-16-7.2-16-16-16-14.7,5.9-15.9,13.6c1.2-24.7,21.6-44.3,46.7-44.3s46.7,21,46.7,46.7-21,46.7-46.7,46.7h0Z"/>
  </g>
  <path class="st2" d="M342.8,281.2l25.4-26.7s-41.4,12-60.1,12-40.4,19-47.1,31.5c-7.7,14.2,76-11,76-11"/>
  <g>
    <path class="st3" d="M248.9,37.1h.1-.1Z"/>
    <path class="st3" d="M270.3,39.1l-6.9,34.3h-28l-6.9-34.7c-2.2.4-3.4.7-3.4.7l8.1,36.6h32.3l8.1-36.2s-1.2-.3-3.4-.7h0Z"/>
  </g>
  <path class="st3" d="M228.3,53s-16.9,1.1-22.5,1.8c-4.7.6-18.8,3.3-18.8,3.3l-4.3,3.6s17.3-3.1,23.1-3.8c5.7-.7,23.1-1.8,23.1-1.8l-.6-3h0Z"/>
  <path class="st3" d="M270.3,53s16.9,1.1,22.5,1.8c4.7.6,18.8,3.3,18.8,3.3l4.3,3.6s-17.3-3.1-23.1-3.8c-5.7-.7-23.1-1.8-23.1-1.8l.6-3h0Z"/>
  <path class="st2" d="M107,354c-9,3-20-4-20-4v-37s8.5-.2,18-9c6.3-5.9,12.4-17.7,14-20,13.4-20,37.7-3.7,37.7-3.7l-25.4-26.7s41.5,10.5,60.1,12c18.5,1.5,46.9,26.4,46.1,32s-26.8,9.4-51.6,12.6c-19,2.5-23.2-6.1-43,3.8s-17.7,33.8-36,39.9h.1Z"/>
  <path class="st3" d="M252.3,295.3c2.3-2.7,4.6-5.5,8.2-6.5,5.2-1.4,10.6,2.1,11.7,7.3,1.3,5.7-2.9,11.4-8.7,12.1-4.4.6-8.2-2.4-11.1-5.3-1.7-1.7-4.3-4.3-6-6-2.5-2.5-5.3-5.9-9.1-5.8-3.1,0-5.9,2.4-6.6,5.5-1.1,4.5,2.4,9,7,9.1,1.6,0,3-.5,4.4-1.2,1.9-1.1,3.6-2.7,5.2-4.1.3-.2.6.1.4.4-1.5,1.7-3,3.5-4.9,4.9-7.1,5.3-16.6-1.1-15-9.7.7-4.2,4.3-7.6,8.5-8.1,2.6-.4,5.1.4,7.2,1.8,1.6,1,2.9,2.2,4.1,3.5.8.8,6.4,6.4,7.2,7.2,1.1,1.1,2.3,2.3,3.6,3.1,1.5,1,3.2,1.7,5,1.4,5.1-.7,7.8-6.5,5.1-10.9-1.5-2.5-4.7-4.1-7.6-3.5-2.6.5-4.9,2.4-6.9,4.1-.4.4-.9.8-1.3,1.1-.3.2-.6-.1-.4-.4h0Z"/>
  <g>
    <path class="st4" d="M67.8,448.8v-47.3h-20.3v-9.6h30.7v58.3c0,5.4-1.7,9.8-5.1,13-2.3,2.2-5,3.6-7.9,4.3-2.9.7-6.5,1-10.7,1h-7.2v-9.6h8.6c8,0,12-3.3,12-10.1h0Z"/>
    <path class="st2" d="M124.5,437.7v9.8c-2.8-2.1-6.2-3.2-10.2-3.2s-6.1.7-8,2c-1.9,1.4-2.9,3.3-2.9,5.8,0,4.8,3.6,7.2,10.7,7.2h14.4v-20.9c0-8.8-4.3-13.2-12.9-13.2h-17.5v-9.2h18.1c7.1,0,12.5,1.8,16.3,5.3,3.8,3.5,5.7,8.5,5.7,15.1v32.2h-24.4c-6.2,0-11.1-1.4-14.8-4.2s-5.5-6.8-5.5-12.2,1.9-9.4,5.8-12.2c3.9-2.8,8.7-4.2,14.6-4.2s6.8.6,10.5,1.8h0Z"/>
    <path class="st2" d="M152.2,468.5v-29.9c0-8.4,1.6-14.2,4.7-17.4,1.5-1.6,3.4-2.8,5.6-3.6,2.2-.8,4.1-1.3,5.8-1.4,1.6-.1,3.9-.2,6.7-.2h9.6v9.2h-11.6c-1.5,0-2.6,0-3.4,0-.8,0-1.8.3-2.9.8-1.1.4-2,1.1-2.9,2.1-1.4,1.8-2.1,5.3-2.1,10.5v29.9h-9.6Z"/>
    <path class="st2" d="M214,469.7c-6.3-5.9-10.9-12.5-13.8-19.6-3-7.2-5.9-18.5-8.8-34.1h10.1c2.9,17.6,7.1,30.9,12.6,40,5.6-9,9.8-22.4,12.6-40h10.1c-2.9,15.6-5.9,27-8.8,34.1s-7.6,13.7-13.8,19.6Z"/>
    <path class="st2" d="M263.7,468.5h-9.6v-43.3h-9l4.4-9.2h14.2v52.5h0ZM253.6,405c-.9-1.2-1.4-2.6-1.4-4.1s.5-2.8,1.4-4,2.4-1.8,4.4-1.8,3.4.6,4.4,1.8c.9,1.2,1.4,2.5,1.4,4s-.5,2.8-1.4,4-2.4,1.8-4.4,1.8-3.4-.6-4.4-1.8h0Z"/>
    <path class="st2" d="M318.3,416v9.2h-19.4c-2.1,0-3.9.4-5.5,1.2-1.5.8-2.3,2-2.3,3.4s.2,1.7.6,2.3.8,1.3,1.3,1.7c.5.4,1.2.9,2.2,1.4,1,.5,1.8.8,2.3,1,.6.2,2.9.9,7,2.2s7.1,2.4,9.1,3.3c2,.9,3.5,2,4.6,3.5,1,1.5,1.7,3,2,4.4.3,1.4.4,2.8.4,4.2,0,9.8-6.7,14.7-20.1,14.7h-18.9v-9.2h18.9c6.9,0,10.3-1.8,10.3-5.5s-1-3.2-3-4.4c-2-1.2-4.5-2.1-7.3-3s-5.8-1.7-8.6-2.8c-2.9-1.1-5.3-2.8-7.3-5.1-2-2.4-3-5.3-3-8.8s1.7-7.9,5.1-10.2,7.6-3.5,12.5-3.5h19.4Z"/>
  </g>
  <g>
    <path class="st2" d="M451.1,468.4h-10.4v-77.4h10.4v77.4Z"/>
    <polygon id="_x3C_" class="st4" points="422.1 467.9 395.3 406.4 394.7 406.4 369.4 467.9 356.9 467.9 389.8 391.4 399.3 391.4 434.5 467.9 422.1 467.9"/>
  </g>
  <text class="st1" transform="translate(659.3 28.6)"><tspan x="0" y="0">Jarvis</tspan></text>
</svg>