<?xml version="1.0" encoding="UTF-8"?>
<svg id="Layer_1" xmlns="http://www.w3.org/2000/svg" version="1.1" viewBox="0 0 2000 400">
  <!-- Generator: Adobe Illustrator 29.5.1, SVG Export Plug-In . SVG Version: 2.1.0 Build 141)  -->
  <defs>
    <style>
      .st0 {
        fill: #5ba6f1;
      }

      .st1 {
        fill: #696a6e;
      }

      .st2 {
        fill: #fff;
      }

      .st3 {
        fill: #03a9f4;
      }
    </style>
  </defs>
  <path class="st2" d="M273.8,51.7s-16.9,1.1-22.5,1.8c-4.7.6-18.8,3.3-18.8,3.3l-4.3,3.6s17.3-3.1,23.1-3.8c5.7-.7,23.1-1.8,23.1-1.8l-.6-3Z"/>
  <path class="st2" d="M315.8,51.7s16.9,1.1,22.5,1.8c4.7.6,18.8,3.3,18.8,3.3l4.3,3.6s-17.3-3.1-23.1-3.8c-5.7-.7-23.1-1.8-23.1-1.8l.6-3Z"/>
  <g>
    <path class="st3" d="M624.1,293.3v-145.4h-62.6v-29.6h94.3v179.4c0,16.6-5.3,30-15.8,40.1-7.2,6.7-15.3,11.1-24.2,13.1-9,2-20,3-33,3h-22.2v-29.6h26.6c24.7,0,37-10.3,37-31Z"/>
    <path class="st2" d="M798.5,259v30.3c-8.5-6.5-19-9.8-31.3-9.8s-18.7,2.1-24.6,6.2c-5.8,4.2-8.8,10-8.8,17.7,0,14.8,11,22.2,33,22.2h44.4v-64.3c0-27.2-13.2-40.7-39.7-40.7h-53.9v-28.3h55.6c21.8,0,38.5,5.4,50.2,16.2,11.7,10.8,17.5,26.3,17.5,46.5v99h-75.1c-19.1,0-34.2-4.3-45.4-12.8-11.2-8.5-16.8-21-16.8-37.4s5.9-28.8,17.8-37.4c11.9-8.5,26.8-12.8,44.8-12.8s20.9,1.8,32.3,5.4Z"/>
    <path class="st2" d="M883.7,353.9v-91.9c0-25.8,4.8-43.7,14.5-53.5,4.7-4.9,10.4-8.6,17.2-11.1,6.7-2.5,12.6-3.9,17.7-4.4,5-.4,12-.7,20.7-.7h29.6v28.3h-35.7c-4.5,0-8,.1-10.4.3-2.5.2-5.4,1-8.8,2.4-3.4,1.3-6.3,3.5-8.8,6.4-4.3,5.4-6.4,16.2-6.4,32.3v91.9h-29.6Z"/>
    <path class="st2" d="M1073.9,357.6c-19.3-18.2-33.5-38.3-42.6-60.3-9.1-22-18.1-57-27.1-105h31c8.8,54.1,21.7,95.1,38.7,122.9,17.1-27.8,30-68.8,38.7-122.9h31c-9,48-18,83-27.1,105-9.1,22-23.3,42.1-42.6,60.3Z"/>
    <path class="st2" d="M1226.8,353.9h-29.6v-133.3h-27.6l13.5-28.3h43.8v161.6ZM1195.8,158.6c-2.9-3.8-4.4-8-4.4-12.5s1.5-8.6,4.4-12.3c2.9-3.7,7.4-5.6,13.5-5.6s10.5,1.9,13.5,5.6c2.9,3.7,4.4,7.8,4.4,12.3s-1.5,8.6-4.4,12.3c-2.9,3.7-7.4,5.6-13.5,5.6s-10.6-1.8-13.5-5.4Z"/>
    <path class="st2" d="M1394.8,192.3v28.3h-59.6c-6.5,0-12.1,1.2-16.8,3.7-4.7,2.5-7.1,6-7.1,10.4s.6,5.1,1.7,7.2c1.1,2.1,2.4,3.9,3.9,5.2,1.5,1.3,3.7,2.8,6.7,4.2,3,1.5,5.4,2.5,7.1,3,1.7.6,8.8,2.9,21.4,6.9,12.6,4,21.9,7.4,27.9,10.1,6.1,2.7,10.7,6.3,14,10.9,3.2,4.6,5.3,9.1,6.2,13.5.9,4.4,1.3,8.7,1.3,13,0,30.1-20.7,45.1-61.9,45.1h-58.2v-28.3h58.2c21.1,0,31.6-5.6,31.6-16.8s-3.1-9.9-9.3-13.5c-6.2-3.6-13.7-6.6-22.6-9.1-8.9-2.5-17.7-5.3-26.6-8.6-8.9-3.3-16.4-8.5-22.6-15.8-6.2-7.3-9.3-16.3-9.3-27.1s5.3-24.2,15.8-31.5c10.5-7.3,23.3-10.9,38.4-10.9h59.6Z"/>
  </g>
  <g>
    <path class="st2" d="M1843.1,353.6h-32V115.6h32v238Z"/>
    <polygon id="_x3C_" class="st3" points="1753.9 351.9 1671.5 162.7 1669.7 162.7 1591.8 351.9 1553.5 351.9 1654.6 116.6 1683.9 116.6 1792.2 351.9 1753.9 351.9"/>
  </g>
  <g>
    <g>
      <path class="st2" d="M414.5,100.1c-14.3-37.8-50.9-64.7-93.7-64.7s-79.4,26.9-93.7,64.7c-39.2,6-69.4,40-69.4,80.6h0c0,44.9,36.7,81.6,81.6,81.6h162.8c44.9,0,81.6-36.7,81.6-81.6h0c0-40.7-30.2-74.7-69.4-80.6h.2Z"/>
      <path class="st0" d="M407.7,76.5"/>
      <path class="st2" d="M320.7,262.4c74,0,134,43,134,96.2H186.7c0-53.1,60-96.2,134-96.2h0Z"/>
      <path class="st3" d="M465.4,164.2c-.7,0-1.3,0-2,.1-7.1-27.6-32.2-48.2-62.1-48.2s-39.9,10.3-51.5,26c-4.1-3.5-13.6-9.9-28.7-9.9s-24.6,6.3-28.7,9.7c-11.6-15.8-30.4-25.9-51.5-25.9-29.9,0-55,20.4-62.1,48.1h-.7c-8.8,0-16,7.2-16,16s7.2,16,16,16,.4,0,.7,0c7.1,27.6,32.2,48.1,62.1,48.1s64.1-28.7,64.1-64.1-1.7-17.2-5.1-24.8c5.1-3.5,12.2-6.5,21.2-6.5s16,3.1,21.1,6.5c-3.2,7.6-4.9,16-4.9,24.8,0,35.4,28.7,64.1,64.1,64.1s55-20.6,62.1-48.2c.7,0,1.3.1,2,.1,8.8,0,16-7.2,16-16s-7.2-16-16-16h-.1ZM240.8,227c-25.8,0-46.7-21-46.7-46.7s21-46.7,46.7-46.7,44.3,18.7,46.5,42.5c-1.9-6.7-8-11.8-15.4-11.8s-16,7.2-16,16,7.2,16,16,16,13.5-4.9,15.4-11.8c-2.1,23.8-22.2,42.5-46.5,42.5h0ZM401.3,227c-25,0-45.4-19.6-46.7-44.3,1.2,7.7,7.7,13.6,15.9,13.6s16-7.2,16-16-7.2-16-16-16-14.7,5.9-15.9,13.6c1.2-24.7,21.6-44.3,46.7-44.3s46.7,21,46.7,46.7-21,46.7-46.7,46.7h0Z"/>
    </g>
    <path class="st3" d="M414.5,279.9l25.4-26.7s-41.4,12-60.1,12-40.4,19-47.1,31.5c-7.7,14.2,76-11,76-11"/>
    <g>
      <path class="st0" d="M320.6,35.9h.1-.1Z"/>
      <path class="st3" d="M342,37.8l-6.9,34.3h-28l-6.9-34.7c-2.2.4-3.4.7-3.4.7l8.1,36.6h32.3l8.1-36.2s-1.2-.3-3.4-.7h0Z"/>
    </g>
    <path class="st3" d="M300,51.7s-16.9,1.1-22.5,1.8c-4.7.6-18.8,3.3-18.8,3.3l-4.3,3.6s17.3-3.1,23.1-3.8c5.8-.7,23.1-1.8,23.1-1.8l-.6-3h0Z"/>
    <path class="st3" d="M342,51.7s16.9,1.1,22.5,1.8c4.7.6,18.8,3.3,18.8,3.3l4.3,3.6s-17.3-3.1-23.1-3.8c-5.8-.7-23.1-1.8-23.1-1.8l.6-3h0Z"/>
    <path class="st3" d="M178.7,352.7c-9,3-20-4-20-4v-37s8.5-.2,18-9,12.4-17.7,14-20c13.4-20,37.7-3.7,37.7-3.7l-25.4-26.7s41.5,10.5,60.1,12c18.5,1.5,46.9,26.4,46.1,32-.9,5.9-26.8,9.4-51.6,12.6-19,2.5-23.2-6.1-43,3.8-19.8,9.9-17.7,33.8-36,39.9h0Z"/>
    <path class="st1" d="M324,294c2.3-2.7,4.6-5.5,8.2-6.5,5.2-1.4,10.6,2.1,11.7,7.3,1.3,5.7-2.9,11.4-8.7,12.1-4.4.6-8.2-2.4-11.1-5.3-1.7-1.7-4.3-4.3-6-6-2.5-2.5-5.3-5.9-9.1-5.8-3.1,0-5.9,2.4-6.6,5.5-1.1,4.5,2.4,9,7,9.1,1.6,0,3-.5,4.4-1.2,1.9-1.1,3.6-2.7,5.2-4.1.3-.2.6.1.4.4-1.5,1.7-3,3.5-4.9,4.9-7.1,5.3-16.6-1.1-15-9.7.7-4.2,4.3-7.6,8.5-8.1,2.6-.4,5.1.4,7.2,1.8,1.6,1,2.9,2.2,4.1,3.5.8.8,6.4,6.4,7.2,7.2,1.1,1.1,2.3,2.3,3.6,3.1,1.5,1,3.2,1.7,5,1.4,5.1-.7,7.8-6.5,5.1-10.9-1.5-2.5-4.7-4.1-7.6-3.5-2.6.5-4.9,2.4-6.9,4.1-.4.4-.9.8-1.3,1.1-.3.2-.6-.1-.4-.4h0Z"/>
  </g>
</svg>
